<svg id="Logo" xmlns="http://www.w3.org/2000/svg" width="214.969" height="54.25" viewBox="0 0 214.969 54.25">
  <defs>
    <style>
      .cls-1 {
        fill: #fff;
      }

      .cls-1, .cls-2, .cls-3 {
        fill-rule: evenodd;
      }

      .cls-2 {
        fill: #999;
      }

      .cls-3 {
        fill: #dad1c7;
      }
    </style>
  </defs>
  <path id="Furniture" class="cls-1" d="M174.751,96.894l0.023-3H163.248v16.039h3.621v-6.072h7.24v-3.024h-7.24V96.894h7.882Zm19.98-3h-3.62v9.326a3.4,3.4,0,0,1-3.575,3.712,3.464,3.464,0,0,1-3.666-3.712V93.892h-3.62v9.326c0,4.239,2.841,6.874,7.286,6.874,4.423,0,7.195-2.635,7.195-6.874V93.892Zm16.75,16.039h4.1l-3.414-5.292a5.3,5.3,0,0,0,3-5.179c0-3.552-2.383-5.568-6.576-5.568h-6.966v16.039h3.621v-4.582h3.689Zm-6.232-7.607v-5.43h3.345c1.993,0,3.139.894,3.139,2.681,0,1.833-1.146,2.749-3.139,2.749h-3.345Zm31.162,7.607V93.892h-3.437V104.2l-7.791-10.311h-3.3v16.039h3.46V99.644l7.767,10.287h3.3Zm10.815,0V93.892h-3.62v16.039h3.62Zm19.041-12.968v-3.07h-13.4v3.07h4.88v12.968h3.62V96.963h4.9Zm19.8-3.07h-3.62v9.326a3.4,3.4,0,0,1-3.575,3.712,3.464,3.464,0,0,1-3.666-3.712V93.892h-3.62v9.326c0,4.239,2.841,6.874,7.286,6.874,4.422,0,7.195-2.635,7.195-6.874V93.892Zm16.75,16.039h4.1l-3.414-5.292a5.3,5.3,0,0,0,3-5.179c0-3.552-2.383-5.568-6.576-5.568h-6.966v16.039h3.62v-4.582h3.689Zm-6.233-7.607v-5.43h3.346c1.993,0,3.139.894,3.139,2.681,0,1.833-1.146,2.749-3.139,2.749h-3.346Zm28.848-5.43v-3H313.217v16.039h12.464v-3h-8.844v-3.552h7.745v-3h-7.745V96.894h8.592Z" transform="translate(-110.719 -72.75)"/>
  <path id="Kallyas_Theme" data-name="Kallyas Theme" class="cls-2" d="M164.054,122.884h1.18v-1.96l1.02-1.1,2.32,3.06h1.4l-2.85-3.93,2.81-3.06h-1.5l-3.2,3.41v-3.41h-1.18v6.99Zm13.5-3.43a1.8,1.8,0,0,0-.595-1.495,2.381,2.381,0,0,0-1.535-.475,3.447,3.447,0,0,0-2.2.77l0.5,0.7a2.769,2.769,0,0,1,1.54-.54,0.993,0.993,0,0,1,1.18,1.06v0.2h-1.45a2.779,2.779,0,0,0-1.57.39,1.323,1.323,0,0,0-.58,1.175,1.575,1.575,0,0,0,.545,1.255,2.034,2.034,0,0,0,1.375.47,2.187,2.187,0,0,0,1.77-.79v0.71h1.02v-3.43Zm-1.52,2.26a1.513,1.513,0,0,1-.935.3,1.464,1.464,0,0,1-.835-0.2,0.676,0.676,0,0,1-.3-0.595q0-.761,1.21-0.76h1.26v0.45A0.959,0.959,0,0,1,176.034,121.714Zm6.6-6.25h-1.12v7.42h1.12v-7.42Zm5.14,0h-1.12v7.42h1.12v-7.42Zm5.64,9.24a1.93,1.93,0,0,0,.66-0.82l2.58-6.32h-1.2l-1.59,3.92-1.59-3.92h-1.2q2.149,5.33,2.15,5.47a0.884,0.884,0,0,1-.235.59,0.771,0.771,0,0,1-.61.27,1.054,1.054,0,0,1-.725-0.33l-0.51.91a1.927,1.927,0,0,0,1.32.53A1.626,1.626,0,0,0,193.414,124.7Zm10.76-5.25a1.8,1.8,0,0,0-.595-1.495,2.385,2.385,0,0,0-1.535-.475,3.445,3.445,0,0,0-2.2.77l0.5,0.7a2.764,2.764,0,0,1,1.54-.54,0.994,0.994,0,0,1,1.18,1.06v0.2h-1.45a2.776,2.776,0,0,0-1.57.39,1.32,1.32,0,0,0-.58,1.175,1.572,1.572,0,0,0,.545,1.255,2.03,2.03,0,0,0,1.375.47,2.187,2.187,0,0,0,1.77-.79v0.71h1.02v-3.43Zm-1.52,2.26a1.517,1.517,0,0,1-.935.3,1.462,1.462,0,0,1-.835-0.2,0.676,0.676,0,0,1-.3-0.595q0-.761,1.21-0.76h1.26v0.45A0.962,0.962,0,0,1,202.654,121.714Zm8.73-1.54a3.2,3.2,0,0,0-.5-0.28q-0.235-.1-0.485-0.18c-0.167-.053-0.359-0.107-0.575-0.16a2.485,2.485,0,0,1-.5-0.17,0.4,0.4,0,0,1-.26-0.38,0.472,0.472,0,0,1,.25-0.435,1.28,1.28,0,0,1,.65-0.145,2.506,2.506,0,0,1,1.41.43l0.42-.83a3.112,3.112,0,0,0-1.74-.54,2.37,2.37,0,0,0-1.5.445,1.422,1.422,0,0,0-.575,1.185q0,1.05,1.66,1.5c0.026,0.007.066,0.02,0.12,0.04a1.211,1.211,0,0,1,1.06.72,0.547,0.547,0,0,1-.22.445,0.938,0.938,0,0,1-.6.175,3.016,3.016,0,0,1-1.8-.7l-0.54.87a3.624,3.624,0,0,0,1.1.59,3.772,3.772,0,0,0,1.205.21,2.142,2.142,0,0,0,1.41-.455,1.5,1.5,0,0,0,.55-1.215,1.251,1.251,0,0,0-.54-1.12h0Zm14.27-3.2v-1.08h-5.42v1.08h2.12v5.91h1.18v-5.91h2.12Zm5.02,1.905a1.462,1.462,0,0,1,1.01-.385,1.2,1.2,0,0,1,1.22,1.47v2.92h1.12v-3.26a2.142,2.142,0,0,0-.555-1.59,1.976,1.976,0,0,0-1.455-.55,2.049,2.049,0,0,0-1.045.28,1.771,1.771,0,0,0-.725.77v-3.06h-1.12v7.41h1.12V120A1.432,1.432,0,0,1,230.674,118.879Zm12.26,1.065a2.259,2.259,0,0,0-.76-1.805,2.729,2.729,0,0,0-1.845-.655,2.685,2.685,0,0,0-1.885.74,2.582,2.582,0,0,0-.8,1.995,2.625,2.625,0,0,0,.785,2,2.663,2.663,0,0,0,1.905.745,2.977,2.977,0,0,0,2.24-.89l-0.64-.7a2.06,2.06,0,0,1-2.64.275,1.209,1.209,0,0,1-.53-0.935h4.17v-0.77Zm-3.68-1.125a1.77,1.77,0,0,1,1.105-.375,1.535,1.535,0,0,1,1.035.36,1.282,1.282,0,0,1,.42,1.03h-3.05A1.21,1.21,0,0,1,239.254,118.819Zm8.859,0.06a1.466,1.466,0,0,1,1.01-.385,1,1,0,0,1,.85.355,1.848,1.848,0,0,1,.27,1.115v2.92h1.12v-2.96a1.385,1.385,0,0,1,.445-1.065,1.482,1.482,0,0,1,1-.365,1.2,1.2,0,0,1,1.22,1.47v2.92h1.12v-3.26a2.142,2.142,0,0,0-.555-1.59,1.976,1.976,0,0,0-1.455-.55,2.39,2.39,0,0,0-1.97,1.04,1.692,1.692,0,0,0-1.71-1.04,2.054,2.054,0,0,0-1.045.28,1.777,1.777,0,0,0-.725.77v-0.97h-1.12v5.32h1.12V120A1.435,1.435,0,0,1,248.113,118.879Zm15.94,1.065a2.256,2.256,0,0,0-.76-1.805,2.725,2.725,0,0,0-1.845-.655,2.688,2.688,0,0,0-1.885.74,2.586,2.586,0,0,0-.8,1.995,2.628,2.628,0,0,0,.785,2,2.667,2.667,0,0,0,1.9.745,2.976,2.976,0,0,0,2.24-.89l-0.64-.7a2.06,2.06,0,0,1-2.64.275,1.215,1.215,0,0,1-.53-0.935h4.17v-0.77Zm-3.68-1.125a1.772,1.772,0,0,1,1.105-.375,1.535,1.535,0,0,1,1.035.36,1.282,1.282,0,0,1,.42,1.03h-3.05A1.212,1.212,0,0,1,260.373,118.819Z" transform="translate(-110.719 -72.75)"/>
  <path class="cls-3" d="M153.675,102.116L134.364,88.6V72.753L113.358,88.082l-2.651,14.051,2.234,12.989,4.014-.69-1.683-9.786,15.018,10.513V127h4.074V115.634l14.464-10.126-1.162,7.871,4.029,0.595,1.726-11.68ZM130.29,80.768v8.306L115.341,99.538l1.72-9.116Zm2.376,31.082-13.9-9.734,13.905-9.734,13.906,9.734Z" transform="translate(-110.719 -72.75)"/>
</svg>
